<?xml version="1.0" encoding="UTF-8"?>
<svg width="128" height="128" viewBox="0 0 128 128" fill="none" xmlns="http://www.w3.org/2000/svg">
  <rect width="128" height="128" rx="64" fill="#409EFF"/>
  <path d="M64 32C46.33 32 32 46.33 32 64C32 81.67 46.33 96 64 96C81.67 96 96 81.67 96 64C96 46.33 81.67 32 64 32ZM64 88C50.75 88 40 77.25 40 64C40 50.75 50.75 40 64 40C77.25 40 88 50.75 88 64C88 77.25 77.25 88 64 88Z" fill="white"/>
  <path d="M64 48C55.16 48 48 55.16 48 64C48 72.84 55.16 80 64 80C72.84 80 80 72.84 80 64C80 55.16 72.84 48 64 48ZM64 72C59.58 72 56 68.42 56 64C56 59.58 59.58 56 64 56C68.42 56 72 59.58 72 64C72 68.42 68.42 72 64 72Z" fill="white"/>
</svg>
